<svg width="100" height="100" viewBox="0 0 100 100" fill="none" xmlns="http://www.w3.org/2000/svg">
<path d="M50.359 70.4289C37.6255 70.4289 26.5047 65.7629 20.7322 58.8567C22.8821 65.0538 26.8889 70.4236 32.1981 74.2229C37.5074 78.0221 43.8562 80.063 50.3662 80.063C56.8761 80.063 63.225 78.0221 68.5343 74.2229C73.8434 70.4236 77.8503 65.0538 80.0002 58.8567C74.2134 65.7629 63.0928 70.4289 50.359 70.4289Z" fill="black"/>
<path d="M50.357 25.5054C63.0908 25.5054 74.2115 30.1714 79.9841 37.0776C77.8341 30.8806 73.8273 25.5108 68.5181 21.7115C63.2089 17.9122 56.86 15.8713 50.3501 15.8713C43.8401 15.8713 37.4913 17.9122 32.182 21.7115C26.8728 25.5108 22.866 30.8806 20.7161 37.0776C26.5028 30.1857 37.6235 25.5054 50.357 25.5054Z" fill="black"/>
</svg>
