<svg width="100" height="100" viewBox="0 0 100 100" fill="none" xmlns="http://www.w3.org/2000/svg">
<path d="M16.2499 50C16.2499 42.875 22.0416 37.0833 29.1666 37.0833H45.8333V29.1667H29.1666C17.6666 29.1667 8.33325 38.5 8.33325 50C8.33325 61.5 17.6666 70.8333 29.1666 70.8333H45.8333V62.9167H29.1666C22.0416 62.9167 16.2499 57.125 16.2499 50ZM33.3333 54.1667H66.6666V45.8333H33.3333V54.1667ZM70.8333 29.1667H54.1666V37.0833H70.8333C77.9583 37.0833 83.7499 42.875 83.7499 50C83.7499 57.125 77.9583 62.9167 70.8333 62.9167H54.1666V70.8333H70.8333C82.3333 70.8333 91.6666 61.5 91.6666 50C91.6666 38.5 82.3333 29.1667 70.8333 29.1667Z" fill="black"/>
</svg>
