<svg width="100" height="100" viewBox="0 0 100 100" fill="none" xmlns="http://www.w3.org/2000/svg">
<path d="M62.5 37.5H37.5V62.5H62.5V37.5ZM54.1667 54.1667H45.8333V45.8333H54.1667V54.1667ZM87.5 45.8333V37.5H79.1667V29.1667C79.1667 24.5833 75.4167 20.8333 70.8333 20.8333H62.5V12.5H54.1667V20.8333H45.8333V12.5H37.5V20.8333H29.1667C24.5833 20.8333 20.8333 24.5833 20.8333 29.1667V37.5H12.5V45.8333H20.8333V54.1667H12.5V62.5H20.8333V70.8333C20.8333 75.4167 24.5833 79.1667 29.1667 79.1667H37.5V87.5H45.8333V79.1667H54.1667V87.5H62.5V79.1667H70.8333C75.4167 79.1667 79.1667 75.4167 79.1667 70.8333V62.5H87.5V54.1667H79.1667V45.8333H87.5ZM70.8333 70.8333H29.1667V29.1667H70.8333V70.8333Z" fill="black"/>
</svg>
