<svg width="100" height="100" viewBox="0 0 100 100" fill="none" xmlns="http://www.w3.org/2000/svg">
<path d="M50.0001 33.3333C54.5834 33.3333 58.3334 29.5833 58.3334 25C58.3334 20.4167 54.5834 16.6667 50.0001 16.6667C45.4167 16.6667 41.6667 20.4167 41.6667 25C41.6667 29.5833 45.4167 33.3333 50.0001 33.3333ZM50.0001 41.6667C45.4167 41.6667 41.6667 45.4167 41.6667 50C41.6667 54.5833 45.4167 58.3333 50.0001 58.3333C54.5834 58.3333 58.3334 54.5833 58.3334 50C58.3334 45.4167 54.5834 41.6667 50.0001 41.6667ZM50.0001 66.6667C45.4167 66.6667 41.6667 70.4167 41.6667 75C41.6667 79.5833 45.4167 83.3333 50.0001 83.3333C54.5834 83.3333 58.3334 79.5833 58.3334 75C58.3334 70.4167 54.5834 66.6667 50.0001 66.6667Z" fill="black"/>
</svg>
