<svg width="100" height="100" viewBox="0 0 100 100" fill="none" xmlns="http://www.w3.org/2000/svg">
<path d="M25.0001 41.6667C20.4167 41.6667 16.6667 45.4167 16.6667 50C16.6667 54.5833 20.4167 58.3333 25.0001 58.3333C29.5834 58.3333 33.3334 54.5833 33.3334 50C33.3334 45.4167 29.5834 41.6667 25.0001 41.6667ZM75.0001 41.6667C70.4167 41.6667 66.6667 45.4167 66.6667 50C66.6667 54.5833 70.4167 58.3333 75.0001 58.3333C79.5834 58.3333 83.3334 54.5833 83.3334 50C83.3334 45.4167 79.5834 41.6667 75.0001 41.6667ZM50.0001 41.6667C45.4167 41.6667 41.6667 45.4167 41.6667 50C41.6667 54.5833 45.4167 58.3333 50.0001 58.3333C54.5834 58.3333 58.3334 54.5833 58.3334 50C58.3334 45.4167 54.5834 41.6667 50.0001 41.6667Z" fill="black"/>
</svg>
