<svg width="100" height="100" viewBox="0 0 100 100" fill="none" xmlns="http://www.w3.org/2000/svg">
<path d="M54.1674 12.4999H45.8341V54.1665H54.1674V12.4999ZM74.2924 21.5415L68.3757 27.4582C74.9591 32.7499 79.1674 40.8749 79.1674 49.9999C79.1674 66.1249 66.1257 79.1665 50.0007 79.1665C33.8757 79.1665 20.8341 66.1249 20.8341 49.9999C20.8341 40.8749 25.0424 32.7499 31.5841 27.4165L25.7091 21.5415C17.6257 28.4165 12.5007 38.5832 12.5007 49.9999C12.5007 70.7082 29.2924 87.4999 50.0007 87.4999C70.7091 87.4999 87.5007 70.7082 87.5007 49.9999C87.5007 38.5832 82.3757 28.4165 74.2924 21.5415Z" fill="#333333"/>
</svg>
