<svg width="100" height="100" viewBox="0 0 100 100" fill="none" xmlns="http://www.w3.org/2000/svg">
<path d="M82.9752 30.171C82.8516 29.9748 82.6637 29.8276 82.4435 29.7546L50.3144 19.1043C50.1101 19.0366 49.8894 19.0366 49.6851 19.1043L17.5559 29.7546C17.3358 29.8276 17.1479 29.9748 17.0243 30.171L6.70134 46.5682C6.35543 47.1177 6.61667 47.8459 7.23295 48.0502L15.6412 50.8374C16.0503 50.9731 16.3265 51.3556 16.3265 51.7866V69.2419C16.3265 69.673 16.6027 70.0555 17.0119 70.1911L49.6849 81.0216C49.8892 81.0893 50.1099 81.0893 50.3142 81.0216L82.9872 70.1911C83.3964 70.0555 83.6726 69.673 83.6726 69.2419V51.7866C83.6726 51.3556 83.9488 50.9731 84.3579 50.8374L92.7662 48.0502C93.3825 47.8459 93.6437 47.1177 93.2978 46.5682L82.9752 30.171ZM70.0419 31.0735C70.9557 31.3764 70.9557 32.669 70.0419 32.9719L50.3144 39.5112C50.1101 39.5789 49.8894 39.5789 49.6851 39.5112L29.9576 32.9719C29.0438 32.669 29.0438 31.3764 29.9576 31.0735L49.6851 24.5342C49.8894 24.4665 50.1101 24.4665 50.3144 24.5342L70.0419 31.0735ZM15.1001 45.2282C14.4838 45.0239 14.2225 44.2956 14.5684 43.7462L19.5918 35.7669C19.8369 35.3775 20.316 35.2057 20.7527 35.3504L44.8545 43.3398C45.4707 43.544 45.732 44.2723 45.3861 44.8217L40.3629 52.8009C40.1178 53.1902 39.6387 53.3621 39.202 53.2173L15.1001 45.2282ZM21.4808 54.1582C21.4808 53.4763 22.1482 52.9944 22.7954 53.209L41.4126 59.3802C41.8493 59.525 42.3284 59.3531 42.5735 58.9638L45.5765 54.1938C46.1108 53.345 47.4227 53.7236 47.4227 54.7266V73.4569C47.4227 74.1388 46.7553 74.6206 46.1081 74.4061L22.1661 66.4697C21.757 66.3341 21.4808 65.9516 21.4808 65.5205V54.1582ZM53.8914 74.4059C53.2442 74.6205 52.5768 74.1386 52.5768 73.4567V54.7264C52.5768 53.7234 53.8887 53.3448 54.423 54.1936L57.426 58.9636C57.6711 59.3529 58.1502 59.5248 58.5869 59.38L77.2041 53.2088C77.8513 52.9942 78.5187 53.4761 78.5187 54.158V65.5204C78.5187 65.9514 78.2425 66.3339 77.8334 66.4696L53.8914 74.4059ZM60.7975 53.2175C60.3608 53.3623 59.8817 53.1904 59.6366 52.8011L54.6134 44.8219C54.2675 44.2725 54.5287 43.5442 55.145 43.3399L79.2468 35.3506C79.6835 35.2058 80.1626 35.3777 80.4077 35.7671L85.431 43.7464C85.7769 44.2958 85.5157 45.0241 84.8994 45.2283L60.7975 53.2175Z" fill="black"/>
</svg>
