<svg width="100" height="100" viewBox="0 0 100 100" fill="none" xmlns="http://www.w3.org/2000/svg">
<path d="M75.0001 33.3333H70.8334V25C70.8334 13.5 61.5001 4.16667 50.0001 4.16667C38.5001 4.16667 29.1667 13.5 29.1667 25V33.3333H25.0001C20.4167 33.3333 16.6667 37.0833 16.6667 41.6667V83.3333C16.6667 87.9167 20.4167 91.6667 25.0001 91.6667H75.0001C79.5834 91.6667 83.3334 87.9167 83.3334 83.3333V41.6667C83.3334 37.0833 79.5834 33.3333 75.0001 33.3333ZM50.0001 70.8333C45.4167 70.8333 41.6667 67.0833 41.6667 62.5C41.6667 57.9167 45.4167 54.1667 50.0001 54.1667C54.5834 54.1667 58.3334 57.9167 58.3334 62.5C58.3334 67.0833 54.5834 70.8333 50.0001 70.8333ZM62.9167 33.3333H37.0834V25C37.0834 17.875 42.8751 12.0833 50.0001 12.0833C57.1251 12.0833 62.9167 17.875 62.9167 25V33.3333Z" fill="black"/>
</svg>
