<svg width="100" height="100" viewBox="0 0 100 100" fill="none" xmlns="http://www.w3.org/2000/svg">
<path d="M39.5885 68.1765C39.5885 70.1176 38.0003 71.8823 35.8826 71.8823C33.765 71.8823 32.1768 70.2941 32.1768 68.1765V52.2941C32.1768 50.3529 33.765 48.5882 35.8826 48.5882C38.0003 48.5882 39.5885 50.1765 39.5885 52.2941V68.1765Z" fill="#231F20"/>
<path d="M50.1765 72.4118C50.1765 74.3529 48.5882 76.1176 46.4706 76.1176C44.3529 76.1176 42.9412 74.5294 42.9412 72.4118V48.2353C42.9412 46.2941 44.5294 44.5294 46.647 44.5294C48.7647 44.5294 50.3529 46.1176 50.3529 48.2353V72.4118H50.1765Z" fill="#231F20"/>
<path d="M28.8236 64.647C28.8236 66.5882 27.2354 68.3529 25.1177 68.3529C23.0001 68.3529 21.4119 66.7647 21.4119 64.647V56C21.4119 54.0588 23.0001 52.2941 25.1177 52.2941C27.2354 52.2941 28.8236 54.0588 28.8236 56V64.647Z" fill="#231F20"/>
<path d="M60.7648 76.2941C60.7648 78.2353 59.1766 80 57.059 80C55.1178 80 53.5295 78.2353 53.5295 76.2941V44.1765C53.5295 42.2353 55.1178 40.4706 57.2354 40.4706C59.1766 40.4706 60.9413 42.0588 60.9413 44.1765V76.2941H60.7648Z" fill="#231F20"/>
<path d="M72.4118 74.7059C71.706 74.7059 71.1766 74.5294 70.4707 74.3529L66.0589 72.9412C65.353 72.7647 64.8236 71.8824 65.1766 71.1765C65.353 70.4706 66.2354 69.9412 66.9413 70.2941L71.5295 71.7059C72.4118 72.0588 73.4707 71.8824 74.353 71.1765C75.2354 70.6471 75.5883 69.5882 75.5883 68.7059V39.2353C75.5883 37.8235 74.706 36.5882 73.4707 36.2353L30.2354 23.1765C29.353 22.8235 28.2942 23 27.4118 23.5294C26.706 24.2353 26.1766 25.1176 26.1766 26.1765V46.4706C26.1766 47.3529 25.4707 47.8824 24.7648 47.8824C23.8824 47.8824 23.353 47.1765 23.353 46.4706V26.1765C23.353 24.2353 24.2354 22.4706 25.8236 21.4118C27.4119 20.1765 29.353 20 31.1177 20.5294L74.1766 33.5882C76.6471 34.2941 78.4118 36.7647 78.4118 39.4118V68.8824C78.4118 70.8235 77.5295 72.5882 75.9413 73.8235C74.8824 74.1765 73.6471 74.7059 72.4118 74.7059Z" fill="#231F20"/>
</svg>
