<svg width="100" height="100" viewBox="0 0 100 100" fill="none" xmlns="http://www.w3.org/2000/svg">
<path d="M49.9999 8.33334C26.9999 8.33334 8.33325 27 8.33325 50C8.33325 73 26.9999 91.6667 49.9999 91.6667C72.9999 91.6667 91.6666 73 91.6666 50C91.6666 27 72.9999 8.33334 49.9999 8.33334ZM33.3333 72.9167C27.5833 72.9167 22.9166 68.25 22.9166 62.5C22.9166 56.75 27.5833 52.0833 33.3333 52.0833C39.0833 52.0833 43.7499 56.75 43.7499 62.5C43.7499 68.25 39.0833 72.9167 33.3333 72.9167ZM39.5833 33.3333C39.5833 27.5833 44.2499 22.9167 49.9999 22.9167C55.7499 22.9167 60.4166 27.5833 60.4166 33.3333C60.4166 39.0833 55.7499 43.75 49.9999 43.75C44.2499 43.75 39.5833 39.0833 39.5833 33.3333ZM66.6666 72.9167C60.9166 72.9167 56.2499 68.25 56.2499 62.5C56.2499 56.75 60.9166 52.0833 66.6666 52.0833C72.4166 52.0833 77.0833 56.75 77.0833 62.5C77.0833 68.25 72.4166 72.9167 66.6666 72.9167Z" fill="black"/>
</svg>
