<svg width="100" height="100" viewBox="0 0 100 100" fill="none" xmlns="http://www.w3.org/2000/svg">
<path d="M49.9584 8.33334C26.9584 8.33334 8.33337 27 8.33337 50C8.33337 73 26.9584 91.6667 49.9584 91.6667C73 91.6667 91.6667 73 91.6667 50C91.6667 27 73 8.33334 49.9584 8.33334ZM50 83.3333C31.5834 83.3333 16.6667 68.4167 16.6667 50C16.6667 31.5833 31.5834 16.6667 50 16.6667C68.4167 16.6667 83.3334 31.5833 83.3334 50C83.3334 68.4167 68.4167 83.3333 50 83.3333Z" fill="black"/>
<path d="M52.0834 29.1667H45.8334V54.1667L67.7084 67.2917L70.8334 62.1667L52.0834 51.0417V29.1667Z" fill="black"/>
</svg>
