<svg width="100" height="100" viewBox="0 0 100 100" fill="none" xmlns="http://www.w3.org/2000/svg">
<path d="M83.3333 54.1667H16.6667C14.375 54.1667 12.5 56.0417 12.5 58.3333V83.3333C12.5 85.625 14.375 87.5 16.6667 87.5H83.3333C85.625 87.5 87.5 85.625 87.5 83.3333V58.3333C87.5 56.0417 85.625 54.1667 83.3333 54.1667ZM29.1667 79.1667C24.5833 79.1667 20.8333 75.4167 20.8333 70.8333C20.8333 66.25 24.5833 62.5 29.1667 62.5C33.75 62.5 37.5 66.25 37.5 70.8333C37.5 75.4167 33.75 79.1667 29.1667 79.1667ZM83.3333 12.5H16.6667C14.375 12.5 12.5 14.375 12.5 16.6667V41.6667C12.5 43.9583 14.375 45.8333 16.6667 45.8333H83.3333C85.625 45.8333 87.5 43.9583 87.5 41.6667V16.6667C87.5 14.375 85.625 12.5 83.3333 12.5ZM29.1667 37.5C24.5833 37.5 20.8333 33.75 20.8333 29.1667C20.8333 24.5833 24.5833 20.8333 29.1667 20.8333C33.75 20.8333 37.5 24.5833 37.5 29.1667C37.5 33.75 33.75 37.5 29.1667 37.5Z" fill="#333333"/>
</svg>
