<svg width="100" height="100" viewBox="0 0 100 100" fill="none" xmlns="http://www.w3.org/2000/svg">
<path d="M70.8335 29.1667H54.1668V37.0833H70.8335C77.9585 37.0833 83.7502 42.875 83.7502 50C83.7502 55.9583 79.6668 60.9583 74.1252 62.4167L80.2085 68.5C87.0002 65.0417 91.6668 58.125 91.6668 50C91.6668 38.5 82.3335 29.1667 70.8335 29.1667ZM66.6668 45.8333H57.5418L65.8752 54.1667H66.6668V45.8333ZM8.3335 17.7917L21.2918 30.75C13.7085 33.8333 8.3335 41.2917 8.3335 50C8.3335 61.5 17.6668 70.8333 29.1668 70.8333H45.8335V62.9167H29.1668C22.0418 62.9167 16.2502 57.125 16.2502 50C16.2502 43.375 21.2918 37.9167 27.7502 37.2083L36.3752 45.8333H33.3335V54.1667H44.7085L54.1668 63.625V70.8333H61.3752L78.0835 87.5L83.3335 82.25L13.6252 12.5L8.3335 17.7917Z" fill="black"/>
</svg>
