<svg width="100" height="100" viewBox="0 0 100 100" fill="none" xmlns="http://www.w3.org/2000/svg">
<path d="M87.4993 42.1667H59.2493L70.666 30.4167C59.291 19.1667 40.8743 18.75 29.4993 30C18.1243 41.2917 18.1243 59.5 29.4993 70.7917C40.8743 82.0833 59.291 82.0833 70.666 70.7917C76.3326 65.2083 79.166 58.6667 79.166 50.4167H87.4993C87.4993 58.6667 83.8326 69.375 76.4993 76.625C61.8743 91.125 38.1243 91.125 23.4993 76.625C8.91599 62.1667 8.79099 38.6667 23.416 24.2083C38.041 9.75 61.4993 9.75 76.1243 24.2083L87.4993 12.5V42.1667ZM52.0827 33.3333V51.0417L66.666 59.7083L63.666 64.75L45.8327 54.1667V33.3333H52.0827Z" fill="black"/>
</svg>
